# xmcd
#
# Track frame offsets: 
#        150
#        21650
#        41285
#        60135
#        78545
#        93727
#        115752
#        132797
#        151192
#        166355
#        185462
#
# Disc length: 2751 seconds
#
# Revision: 1
# Processed by: cddbd v1.4PL0 Copyright (c) Steve Scherf et al.
# Submitted via: ExactAudioCopy v0.90b4
#
DISCID=830abd0b
DTITLE=Lisa Miller - Quiet girl with a credit card
DYEAR=1995
DGENRE=Folk/Rock
TTITLE0=Big american car
TTITLE1=You're a big girl now
TTITLE2=Guitar boat
TTITLE3=Nobody's an angel
TTITLE4=I'm gonna live my life (I'm gonna take my time)
TTITLE5=Hang my head
TTITLE6=Woman left lonely
TTITLE7=False waltz
TTITLE8=Long wide road
TTITLE9=Too dark to see
TTITLE10=Big small town
EXTD=
EXTT0=
EXTT1=
EXTT2=
EXTT3=
EXTT4=
EXTT5=
EXTT6=
EXTT7=
EXTT8=
EXTT9=
EXTT10=
PLAYORDER=
